<svg width="111" height="111" viewBox="0 0 111 111" fill="none" xmlns="http://www.w3.org/2000/svg">
<g filter="url(#filter0_d_564_3)">
<circle cx="55.8702" cy="51.8702" r="30.8702" fill="white"/>
</g>
<g filter="url(#filter1_d_564_3)">
<circle cx="55.87" cy="51.8702" r="27.6629" fill="#65C466"/>
</g>
<path d="M69.0638 57.2671L66.5744 51.5583C66.4399 51.1556 66.1184 50.8399 65.7135 50.7137L59.2722 48.664L58.5825 46.9396L60.6191 44.4956C60.6852 44.4158 60.7214 44.3161 60.7214 44.2129V43.3309H61.1624C61.8918 43.3309 62.4854 42.7373 62.4854 42.0079V40.2439C62.4854 39.5145 61.8918 38.9209 61.1624 38.9209H60.7214V38.4799H61.1624C61.2845 38.4799 61.4018 38.4292 61.4847 38.3396C61.5681 38.2501 61.6109 38.1297 61.6021 38.0076L61.2784 33.4718C61.1963 32.3235 60.2305 31.4238 59.0786 31.4238H52.7833C51.5675 31.4238 50.5783 32.413 50.5783 33.6288V38.0389C50.5783 38.2823 50.7754 38.4799 51.0193 38.4799V38.9209H50.5783C49.8489 38.9209 49.2553 39.5145 49.2553 40.2439V42.0079C49.2553 42.7373 49.8489 43.3309 50.5783 43.3309H51.0193V44.2129C51.0193 44.3161 51.0555 44.4158 51.1212 44.4952L53.1502 46.9304L52.3454 48.7389L50.1227 49.4335L46.0267 50.7137C45.6219 50.8399 45.3004 51.1556 45.18 51.5217L42.6768 57.2671C42.6173 57.4033 42.631 57.5608 42.7121 57.6847C42.7942 57.809 42.9326 57.884 43.0812 57.884H68.6594C68.808 57.884 68.9465 57.809 69.0285 57.6847C69.1097 57.5603 69.1234 57.4033 69.0638 57.2671ZM60.7214 39.8029H61.1624C61.4058 39.8029 61.6034 40.0009 61.6034 40.2439V42.0079C61.6034 42.2509 61.4058 42.4489 61.1624 42.4489H60.7214V39.8029ZM51.0193 42.4489H50.5783C50.3349 42.4489 50.1373 42.2509 50.1373 42.0079V40.2439C50.1373 40.0009 50.3349 39.8029 50.5783 39.8029H51.0193V42.4489ZM59.0848 49.5663L60.6623 50.0593L57.816 52.4081L56.6536 50.9554L59.0848 49.5663ZM57.0434 53.0004L55.8703 54.1734L54.6973 53.0004L55.8703 51.534L57.0434 53.0004ZM53.2689 48.8338L53.8955 47.4261L55.7063 48.1506C55.7592 48.1714 55.8148 48.1819 55.8703 48.1819C55.9259 48.1819 55.9815 48.1714 56.0339 48.1506L57.8297 47.4322L58.4052 48.8717L55.8703 50.3199L53.2689 48.8338ZM51.4603 33.6288C51.4603 32.8994 52.0539 32.3058 52.7833 32.3058H59.0786C59.7692 32.3058 60.3492 32.8456 60.3986 33.5345L60.6887 37.5979H59.8394H57.6344C55.5859 37.5979 54.5473 36.8561 54.5473 35.3929C54.5473 35.1494 54.3502 34.9519 54.1063 34.9519C53.8624 34.9519 53.6653 35.1494 53.6653 35.3929C53.6653 36.6087 52.6762 37.5979 51.4603 37.5979V33.6288ZM51.9013 44.0533V38.4464C52.8274 38.3132 53.623 37.7685 54.0935 37.003C54.6955 37.9573 55.9153 38.4799 57.6344 38.4799H59.8394V44.0533L57.8081 46.4907L55.8703 47.266L53.9326 46.4911L51.9013 44.0533ZM52.6709 49.561L55.1991 50.9607L54.0415 52.4076L51.1631 50.0324L52.6709 49.561ZM53.7623 57.002H43.7542L46.0033 51.8365C46.0479 51.7025 46.155 51.5975 46.2895 51.5552L50.1576 50.3464L53.8104 53.3611L54.4997 54.0504L53.7623 57.002ZM54.6712 57.002L55.2269 54.7776L55.5581 55.1088C55.6445 55.1948 55.7574 55.238 55.8703 55.238C55.9832 55.238 56.0961 55.1948 56.1821 55.1088L56.5133 54.7776L57.0694 57.002H54.6712ZM57.9783 57.002L57.2405 54.0504L57.8306 53.4603C57.9038 53.4466 57.9739 53.4215 58.0321 53.3734L61.6678 50.3733L61.8583 50.4328L60.3029 55.0986C60.2557 55.2406 60.283 55.3968 60.3765 55.5136L61.5672 57.002H57.9783ZM61.2157 55.1498L62.7002 50.6957L63.4102 50.9175L63.793 55.5119L62.522 56.7828L61.2157 55.1498ZM63.55 57.002L64.5612 55.9908C64.6529 55.8991 64.6992 55.7716 64.6886 55.6424L64.3186 51.2015L65.4511 51.5552C65.5861 51.5971 65.6932 51.702 65.7519 51.8731L67.9865 57.002H63.55Z" fill="white"/>
<path d="M40.3816 67.1426C40.0866 67.1426 39.8086 67.0955 39.5477 67.0014C39.2912 66.9031 39.0795 66.762 38.9127 66.5781L39.0666 66.3472C39.2591 66.5353 39.4643 66.6722 39.6824 66.7577C39.9048 66.8389 40.1464 66.8796 40.4073 66.8796C40.7708 66.8796 41.0637 66.8026 41.2861 66.6486C41.5127 66.4947 41.6517 66.2488 41.703 65.911C41.8057 65.2481 41.4465 64.9167 40.6254 64.9167H39.9903L40.0288 64.6665H40.651C40.9932 64.6665 41.2797 64.5789 41.5106 64.4035C41.7458 64.2282 41.8891 63.9823 41.9404 63.6659C41.9874 63.3793 41.9276 63.1612 41.7608 63.0116C41.594 62.8576 41.3395 62.7806 40.9974 62.7806C40.728 62.7806 40.4779 62.8234 40.2469 62.9089C40.016 62.9945 39.7894 63.1334 39.567 63.3259L39.4451 63.095C39.6461 62.9068 39.8834 62.7635 40.1571 62.6652C40.4308 62.5668 40.7152 62.5176 41.0103 62.5176C41.4294 62.5176 41.7479 62.6203 41.966 62.8255C42.1884 63.0308 42.2697 63.3259 42.2098 63.7108C42.1713 63.9631 42.0558 64.194 41.8634 64.4035C41.671 64.6088 41.4294 64.7478 41.1386 64.8205L41.145 64.7563C41.4657 64.8119 41.6966 64.9466 41.8377 65.1605C41.9831 65.3743 42.0302 65.6458 41.9789 65.9751C41.9233 66.3514 41.7522 66.6401 41.4657 66.8411C41.1792 67.0421 40.8178 67.1426 40.3816 67.1426ZM44.2086 67.1426C43.6912 67.1426 43.3298 66.9373 43.1246 66.5268C42.9193 66.1162 42.8765 65.5304 42.9963 64.7692C43.1203 63.9994 43.3405 63.4328 43.657 63.0693C43.9734 62.7015 44.3733 62.5176 44.8565 62.5176C45.374 62.5176 45.7332 62.7229 45.9342 63.1334C46.1394 63.5397 46.1801 64.1256 46.056 64.891C45.9363 65.6565 45.7182 66.2231 45.4018 66.5909C45.0853 66.9587 44.6876 67.1426 44.2086 67.1426ZM44.2151 66.8796C44.6256 66.8796 44.9613 66.7192 45.2221 66.3985C45.483 66.0777 45.669 65.5539 45.7802 64.8269C45.8529 64.3608 45.8657 63.978 45.8187 63.6787C45.7759 63.3751 45.6733 63.1505 45.5108 63.0052C45.3483 62.8555 45.1259 62.7806 44.8437 62.7806C44.4289 62.7806 44.091 62.941 43.8302 63.2617C43.5736 63.5782 43.3897 64.0999 43.2785 64.8269C43.2058 65.2887 43.1909 65.6715 43.2336 65.9751C43.2807 66.2787 43.3854 66.5054 43.5479 66.6551C43.7104 66.8047 43.9328 66.8796 44.2151 66.8796ZM49.511 67.1426C49.2159 67.1426 48.9679 67.0763 48.7669 66.9437C48.5702 66.8111 48.4334 66.6166 48.3564 66.36C48.2794 66.1034 48.2687 65.7912 48.3243 65.4235C48.3799 65.0813 48.4825 64.7927 48.6322 64.5575C48.7862 64.318 48.9765 64.1384 49.2031 64.0187C49.4298 63.8946 49.6842 63.8326 49.9664 63.8326C50.2658 63.8326 50.5138 63.8989 50.7105 64.0315C50.9072 64.1641 51.0462 64.3586 51.1275 64.6152C51.2087 64.8718 51.2194 65.184 51.1596 65.5517C51.104 65.8939 50.9992 66.1847 50.8452 66.4241C50.6913 66.6593 50.501 66.8389 50.2743 66.963C50.0477 67.0827 49.7932 67.1426 49.511 67.1426ZM49.5367 66.8924C49.8788 66.8924 50.1717 66.7727 50.4155 66.5332C50.6635 66.2894 50.8239 65.9409 50.8966 65.4876C50.9693 65.0343 50.9179 64.6879 50.7426 64.4484C50.5673 64.2047 50.3 64.0828 49.9408 64.0828C49.5987 64.0828 49.3057 64.2047 49.062 64.4484C48.8225 64.6879 48.6664 65.0343 48.5937 65.4876C48.521 65.9409 48.5681 66.2894 48.7348 66.5332C48.9059 66.7727 49.1732 66.8924 49.5367 66.8924ZM51.8433 67.0912L52.3501 63.884H52.6195L52.395 65.308H54.4476L54.6721 63.884H54.9416L54.4348 67.0912H54.1654L54.4091 65.5453H52.3565L52.1127 67.0912H51.8433ZM56.8151 67.1426C56.5201 67.1426 56.272 67.0763 56.071 66.9437C55.8743 66.8111 55.7353 66.6166 55.6541 66.36C55.5771 66.1034 55.5686 65.7912 55.6284 65.4235C55.714 64.9103 55.9043 64.5169 56.1993 64.2432C56.4944 63.9695 56.8515 63.8326 57.2706 63.8326C57.5699 63.8326 57.8158 63.9117 58.0082 64.07C58.205 64.2282 58.3247 64.4463 58.3675 64.7243H58.2905L58.4893 63.884H58.7523C58.7224 64.0037 58.6925 64.1213 58.6625 64.2368C58.6326 64.3522 58.6091 64.4655 58.592 64.5767L58.1943 67.0912H57.9248L58.0596 66.2509H58.1494C58.0296 66.5289 57.8564 66.747 57.6298 66.9052C57.4031 67.0635 57.1316 67.1426 56.8151 67.1426ZM56.8408 66.8924C57.1829 66.8924 57.4758 66.7727 57.7196 66.5332C57.9676 66.2894 58.128 65.9409 58.2007 65.4876C58.2734 65.0343 58.2221 64.6879 58.0467 64.4484C57.8714 64.2047 57.6041 64.0828 57.2449 64.0828C56.9028 64.0828 56.6099 64.2047 56.3661 64.4484C56.1266 64.6879 55.9705 65.0343 55.8978 65.4876C55.8251 65.9409 55.8722 66.2894 56.039 66.5332C56.21 66.7727 56.4773 66.8924 56.8408 66.8924ZM59.0722 67.149L58.9696 66.9245C59.1449 66.8389 59.2924 66.7406 59.4122 66.6294C59.5362 66.5139 59.641 66.3707 59.7265 66.1996C59.812 66.0286 59.8869 65.8147 59.951 65.5582C60.0194 65.3016 60.0836 64.9894 60.1434 64.6216L60.2653 63.884H62.3629L61.8561 67.0912H61.5867L62.055 64.1149H60.4898L60.4064 64.628C60.3423 65.0257 60.2717 65.3657 60.1948 65.648C60.1221 65.9259 60.0344 66.1611 59.9318 66.3536C59.8291 66.5417 59.7073 66.7 59.5661 66.8282C59.4293 66.9523 59.2646 67.0592 59.0722 67.149ZM64.2383 67.1426C63.9432 67.1426 63.6952 67.0763 63.4942 66.9437C63.2975 66.8111 63.1585 66.6166 63.0772 66.36C63.0002 66.1034 62.9917 65.7912 63.0516 65.4235C63.1371 64.9103 63.3274 64.5169 63.6225 64.2432C63.9175 63.9695 64.2746 63.8326 64.6937 63.8326C64.993 63.8326 65.2389 63.9117 65.4314 64.07C65.6281 64.2282 65.7478 64.4463 65.7906 64.7243H65.7136L65.9125 63.884H66.1755C66.1455 64.0037 66.1156 64.1213 66.0857 64.2368C66.0557 64.3522 66.0322 64.4655 66.0151 64.5767L65.6174 67.0912H65.348L65.4827 66.2509H65.5725C65.4528 66.5289 65.2796 66.747 65.0529 66.9052C64.8263 67.0635 64.5547 67.1426 64.2383 67.1426ZM64.2639 66.8924C64.606 66.8924 64.899 66.7727 65.1427 66.5332C65.3907 66.2894 65.5511 65.9409 65.6238 65.4876C65.6965 65.0343 65.6452 64.6879 65.4699 64.4484C65.2945 64.2047 65.0273 64.0828 64.668 64.0828C64.3259 64.0828 64.033 64.2047 63.7892 64.4484C63.5498 64.6879 63.3937 65.0343 63.321 65.4876C63.2483 65.9409 63.2953 66.2894 63.4621 66.5332C63.6331 66.7727 63.9004 66.8924 64.2639 66.8924ZM66.7648 67.0912L67.2715 63.884H67.5217L67.047 66.886L66.8995 66.8732L69.6064 63.884H69.8502L69.3434 67.0912H69.0933L69.5679 64.0892L69.7219 64.102L67.0085 67.0912H66.7648ZM68.6314 63.5825C68.4988 63.5825 68.3663 63.5568 68.2337 63.5055C68.1011 63.4542 67.9814 63.3708 67.8745 63.2553C67.7718 63.1356 67.6949 62.9795 67.6436 62.7871L67.8552 62.6973C67.9151 62.9196 68.0113 63.0843 68.1439 63.1912C68.2807 63.2981 68.4454 63.3515 68.6378 63.3515C68.8345 63.3515 69.0013 63.3066 69.1382 63.2168C69.275 63.1228 69.4118 62.9517 69.5487 62.7037L69.754 62.7871C69.6556 62.9966 69.5444 63.1591 69.4204 63.2746C69.2964 63.39 69.1681 63.4713 69.0355 63.5183C68.903 63.5611 68.7682 63.5825 68.6314 63.5825ZM70.4732 67.0912L70.9799 63.884H71.2494L71.0248 65.308H73.0775L73.302 63.884H73.5714L73.0647 67.0912H72.7953L73.039 65.5453H70.9864L70.7426 67.0912H70.4732Z" fill="white"/>
<defs>
<filter id="filter0_d_564_3" x="0.945278" y="0.152575" width="109.85" height="109.85" filterUnits="userSpaceOnUse" color-interpolation-filters="sRGB">
<feFlood flood-opacity="0" result="BackgroundImageFix"/>
<feColorMatrix in="SourceAlpha" type="matrix" values="0 0 0 0 0 0 0 0 0 0 0 0 0 0 0 0 0 0 127 0" result="hardAlpha"/>
<feOffset dy="3.2073"/>
<feGaussianBlur stdDeviation="12.0274"/>
<feColorMatrix type="matrix" values="0 0 0 0 0 0 0 0 0 0 0 0 0 0 0 0 0 0 0.15 0"/>
<feBlend mode="normal" in2="BackgroundImageFix" result="effect1_dropShadow_564_3"/>
<feBlend mode="normal" in="SourceGraphic" in2="effect1_dropShadow_564_3" result="shape"/>
</filter>
<filter id="filter1_d_564_3" x="4.15231" y="3.35985" width="103.435" height="103.435" filterUnits="userSpaceOnUse" color-interpolation-filters="sRGB">
<feFlood flood-opacity="0" result="BackgroundImageFix"/>
<feColorMatrix in="SourceAlpha" type="matrix" values="0 0 0 0 0 0 0 0 0 0 0 0 0 0 0 0 0 0 127 0" result="hardAlpha"/>
<feOffset dy="3.2073"/>
<feGaussianBlur stdDeviation="12.0274"/>
<feColorMatrix type="matrix" values="0 0 0 0 0 0 0 0 0 0 0 0 0 0 0 0 0 0 0.25 0"/>
<feBlend mode="normal" in2="BackgroundImageFix" result="effect1_dropShadow_564_3"/>
<feBlend mode="normal" in="SourceGraphic" in2="effect1_dropShadow_564_3" result="shape"/>
</filter>
</defs>
</svg>
